<svg width="520" height="640" viewBox="0 0 520 640" fill="none" xmlns="http://www.w3.org/2000/svg">
  <defs>
    <linearGradient id="g" x1="70" y1="40" x2="420" y2="610" gradientUnits="userSpaceOnUse">
      <stop stop-color="#e9eef2" stop-opacity="0.95"/>
      <stop offset="1" stop-color="#aab6c0" stop-opacity="0.95"/>
    </linearGradient>
    <filter id="s" x="-20%" y="-20%" width="140%" height="140%" color-interpolation-filters="sRGB">
      <feDropShadow dx="0" dy="18" stdDeviation="24" flood-color="#000" flood-opacity="0.35"/>
    </filter>
  </defs>

  <!-- Simple grayscale portrait placeholder -->
  <g filter="url(#s)">
    <path d="M121 589C121 499 183 465 260 465C337 465 399 499 399 589V610C399 622 389 632 377 632H143C131 632 121 622 121 610V589Z" fill="url(#g)"/>
    <path d="M260 446C322 446 372 395 372 333C372 271 322 220 260 220C198 220 148 271 148 333C148 395 198 446 260 446Z" fill="url(#g)"/>
    <path d="M149 332C149 267 200 216 260 216C320 216 371 267 371 332C371 397 320 448 260 448C200 448 149 397 149 332Z" stroke="#3d4b57" stroke-opacity="0.35" stroke-width="10"/>
  </g>
</svg>

